<?xml version="1.0" encoding="utf-8"?>
<!-- Generator: Adobe Illustrator 25.3.1, SVG Export Plug-In . SVG Version: 6.00 Build 0)  -->
<svg version="1.1" id="Capa_1" xmlns="http://www.w3.org/2000/svg" xmlns:xlink="http://www.w3.org/1999/xlink" x="0px" y="0px"
	 viewBox="0 0 512 512" style="enable-background:new 0 0 512 512;" xml:space="preserve">
<style type="text/css">
	.st0{fill:#FDCF11;}
	.st1{fill:#FFFFFF;}
	.st2{fill:#AEC9D6;}
	.st3{fill:#8FB2BC;}
	.st4{fill:#374C97;}
</style>
<g>
	<path class="st0" d="M389,7.2H83.4c-10.7,0-19.4,8.7-19.4,19.4v368.9c0,10.7,8.7,19.4,19.4,19.4H103c1.4,0,2.6-0.6,3.6-1.6
		L407.3,91.2c0.9-0.9,1.3-2,1.3-3.3V26.9C408.7,16,399.8,7.2,389,7.2z"/>
	<path class="st1" d="M448.1,127.2v302.3c0,10.7-8.7,19.4-19.4,19.4h-311c-10.7,0-19.4-8.7-19.4-19.4V63.1
		c0-10.7,8.7-19.4,19.4-19.4h246.9l8.9,8.9L448.1,127.2z"/>
	<path class="st2" d="M448.1,127.2v302.3c0,10.7-8.7,19.4-19.4,19.4h-311c-10.7,0-19.4-8.7-19.4-19.4v-4.9h310.3
		c10.8,0,19.6-8.7,19.6-19.6V127.2l-54.6-74.6L448.1,127.2z"/>
	<path class="st2" d="M448.1,127.2h-19.9h-57.2c-3.5,0-6.4-2.8-6.4-6.4V43.6c1.3,0,2.5,0.5,3.4,1.5l78.7,78.7
		C447.6,124.7,448.1,126,448.1,127.2z"/>
	<path class="st3" d="M448.1,127.2h-19.9l-60.3-82.1l78.7,78.7C447.6,124.7,448.1,126,448.1,127.2L448.1,127.2z"/>
	<g>
		<path class="st2" d="M186.1,192.3h174.4c4,0,7.3-3.3,7.3-7.3c0-4-3.3-7.3-7.3-7.3H186.1c-4,0-7.3,3.3-7.3,7.3
			C178.8,189,182,192.3,186.1,192.3z"/>
		<path class="st2" d="M360.5,220.7H186.1c-4,0-7.3,3.3-7.3,7.3c0,4,3.3,7.3,7.3,7.3h174.4c4,0,7.3-3.3,7.3-7.3
			C367.8,224,364.5,220.7,360.5,220.7z"/>
		<path class="st2" d="M360.5,264.6H326c-4,0-7.3,3.3-7.3,7.3s3.3,7.3,7.3,7.3h34.4c4,0,7.3-3.3,7.3-7.3S364.5,264.6,360.5,264.6z"
			/>
		<path class="st2" d="M291.7,264.6H186.1c-4,0-7.3,3.3-7.3,7.3s3.3,7.3,7.3,7.3h105.7c4,0,7.3-3.3,7.3-7.3S295.8,264.6,291.7,264.6
			z"/>
	</g>
	<path class="st4" d="M379.7,398.4c0,58.6-47.8,106.4-106.4,106.4c-4.6,0-9.2-0.3-13.6-0.9l0,0c-52.3-6.7-92.9-51.5-92.9-105.5
		c0-54.1,40.6-98.8,92.9-105.5l0,0c4.4-0.6,8.9-0.9,13.6-0.9C331.9,292,379.7,339.8,379.7,398.4z"/>
	<path class="st1" d="M316.3,406.5c-3.3-3.3-8.7-3.3-12,0l-22.6,22.6v-81.9c0-4.6-3.8-8.5-8.5-8.5s-8.5,3.8-8.5,8.5v81.9l-22.6-22.6
		c-3.3-3.3-8.7-3.3-12,0s-3.3,8.7,0,12l37.1,37.1c1.7,1.7,3.8,2.5,6,2.5s4.3-0.8,6-2.5l37.1-37.1
		C319.6,415.2,319.6,409.8,316.3,406.5L316.3,406.5z"/>
</g>
</svg>
