<svg xmlns="http://www.w3.org/2000/svg" xmlns:xlink="http://www.w3.org/1999/xlink" width="40.792" height="50" viewBox="0 0 40.792 50">
  <defs>
    <linearGradient id="linear-gradient" x1="0.5" y1="-0.5" x2="0.5" y2="-0.46" gradientUnits="objectBoundingBox">
      <stop offset="0" stop-color="#f3f7ff"/>
      <stop offset="0.99" stop-color="#b5d1ff"/>
    </linearGradient>
    <linearGradient id="linear-gradient-2" x1="0.5" y1="-0.17" x2="0.5" y2="20.658" gradientUnits="objectBoundingBox">
      <stop offset="0" stop-color="#ff5252"/>
      <stop offset="1" stop-color="#d50000"/>
    </linearGradient>
    <linearGradient id="linear-gradient-3" y1="-0.085" y2="2.406" xlink:href="#linear-gradient"/>
    <linearGradient id="linear-gradient-4" y1="-2.145" y2="-0.366" xlink:href="#linear-gradient"/>
    <linearGradient id="linear-gradient-5" y1="-0.123" y2="2.825" xlink:href="#linear-gradient-2"/>
    <linearGradient id="linear-gradient-6" y1="-4.203" y2="3.531" xlink:href="#linear-gradient-2"/>
  </defs>
  <g id="icono-pdf" transform="translate(-6.135)">
    <path id="Trazado_17" data-name="Trazado 17" d="M45.306,50H12.757A.769.769,0,0,1,12,49.219V.781A.769.769,0,0,1,12.757,0H37.48a.745.745,0,0,1,.535.229l7.825,8.077a.794.794,0,0,1,.222.552V49.219A.769.769,0,0,1,45.306,50Z" fill="url(#linear-gradient)"/>
    <path id="Trazado_18" data-name="Trazado 18" d="M7,32.946l4-1.767,2.792,4.285H7Z" transform="translate(0 -7.31)" fill="url(#linear-gradient-2)"/>
    <path id="Trazado_19" data-name="Trazado 19" d="M44.306,50H11.757A.769.769,0,0,1,11,49.219V.781A.769.769,0,0,1,11.757,0H36.794l8.269,8.534V49.219A.769.769,0,0,1,44.306,50Z" fill="url(#linear-gradient-3)"/>
    <path id="Trazado_20" data-name="Trazado 20" d="M45.076,0V9.924a1,1,0,0,0,1,1H56l-4.9-5.9Z" transform="translate(-10.938)" fill="url(#linear-gradient-4)"/>
    <path id="Trazado_21" data-name="Trazado 21" d="M46.022,52.5H8.77A1.769,1.769,0,0,1,7,50.73V34.714H46.022a1.771,1.771,0,0,1,1.77,1.77V50.73a1.77,1.77,0,0,1-1.77,1.77Z" transform="translate(-0.865 -10.516)" fill="url(#linear-gradient-5)"/>
    <path id="Trazado_22" data-name="Trazado 22" d="M11,31.179H8.768a1.767,1.767,0,1,0,0,3.535H11Z" transform="translate(0 -7.219)" fill="url(#linear-gradient-6)"/>
    <g id="Grupo_15" data-name="Grupo 15" transform="translate(11.81 29.343)">
      <path id="Trazado_23" data-name="Trazado 23" d="M15,47.035V40.181a.868.868,0,0,1,.868-.869,28.118,28.118,0,0,1,3.977.129,2.416,2.416,0,0,1,1.735,2.514,2.482,2.482,0,0,1-1.916,2.584,18.245,18.245,0,0,1-2.651.123.279.279,0,0,0-.279.279v2.094a.867.867,0,1,1-1.734,0Zm1.734-5.99v1.879a.279.279,0,0,0,.279.279,7.605,7.605,0,0,0,2.041-.135,1.172,1.172,0,0,0-.234-2.244,16.963,16.963,0,0,0-1.807-.059.279.279,0,0,0-.278.28Z" transform="translate(-15 -39.277)" fill="#fff"/>
      <path id="Trazado_24" data-name="Trazado 24" d="M23,40.181a.868.868,0,0,1,.868-.869,19.481,19.481,0,0,1,3.936.164,3.241,3.241,0,0,1,2.116,2.183,6.351,6.351,0,0,1,.281,2.03,5.635,5.635,0,0,1-.264,1.828,3.132,3.132,0,0,1-2.139,2.2,20.884,20.884,0,0,1-3.93.182A.868.868,0,0,1,23,47.034Zm1.734.864v5.131a.279.279,0,0,0,.279.279,10.917,10.917,0,0,0,2.065-.082,1.483,1.483,0,0,0,1.154-1.187,5.609,5.609,0,0,0,.176-1.573,5.133,5.133,0,0,0-.176-1.529,1.664,1.664,0,0,0-1.3-1.237,14.379,14.379,0,0,0-1.924-.082.279.279,0,0,0-.275.28Z" transform="translate(-15 -39.277)" fill="#fff"/>
      <path id="Trazado_25" data-name="Trazado 25" d="M31.682,47.035V40.181a.869.869,0,0,1,.869-.869h4.293a.726.726,0,1,1,0,1.453H33.7a.279.279,0,0,0-.279.28v1.474a.279.279,0,0,0,.279.28h2.58a.727.727,0,1,1,0,1.453H33.7a.279.279,0,0,0-.279.279v2.5a.87.87,0,0,1-1.739,0Z" transform="translate(-15 -39.277)" fill="#fff"/>
    </g>
  </g>
</svg>
