<svg xmlns="http://www.w3.org/2000/svg" width="368.416" height="40" viewBox="0 0 368.416 40">
  <g id="Logo-Taag" transform="translate(-0.001)">
    <path id="Trazado_17" data-name="Trazado 17" d="M38.236,11.219H27.377V3.8h30.1v7.419H46.622V41.86H38.236Z" transform="translate(-27.376 -2.833)"/>
    <path id="Trazado_18" data-name="Trazado 18" d="M87.735,3.8h6.936l16.557,38.059h-9.462L98.488,33.8H83.705l-3.17,8.064h-9.25Zm3.227,11.073L86.335,26.7h9.3Z" transform="translate(-41.67 -2.833)"/>
    <path id="Trazado_19" data-name="Trazado 19" d="M145.6,3.8h6.935l16.557,38.059h-9.462L156.351,33.8H141.568l-3.17,8.063h-9.249Zm3.226,11.073L144.2,26.7h9.3Z" transform="translate(-60.508 -2.833)"/>
    <path id="Trazado_20" data-name="Trazado 20" d="M226.3,38.705a34.117,34.117,0,0,1-15.964,3.656c-11.881,0-20.536-7.795-20.536-20s8.655-20,20.536-20c6.019,0,11.341,1.344,15.16,4.892l-5.914,6.45c-2.257-2.365-5-3.6-9.245-3.6-7.149,0-11.829,5.161-11.829,12.257s4.679,12.257,11.829,12.257a16.4,16.4,0,0,0,7.9-1.882V26.557H211.41V18.816H226.3Z" transform="translate(-80.253 -2.366)"/>
    <path id="Trazado_21" data-name="Trazado 21" d="M308.606,38.813a29.323,29.323,0,0,1-14.246,3.548c-11.826,0-20.321-8.063-20.321-20,0-11.988,9.086-20,20.481-20,5,0,9.838,1.344,13.44,5l-3.386,3.548A14.294,14.294,0,0,0,294.2,6.559c-8.709,0-15.321,6.558-15.321,15.8,0,9.085,6.4,15.8,15.752,15.8a22.371,22.371,0,0,0,9.46-2.2V24.3h-8.764V20.105H308.6Z" transform="translate(-107.677 -2.366)"/>
    <path id="Trazado_22" data-name="Trazado 22" d="M358.768,43.207c-2.955,3.817-6.5,5.215-11.181,5.215-7.9,0-12.74-5.914-12.74-13.224,0-7.795,5.483-13.225,12.9-13.225,7.1,0,11.934,4.838,11.934,13.171v1.344H339.364a8.41,8.41,0,0,0,8.224,8.064,9.369,9.369,0,0,0,8.01-3.817Zm-3.6-10.267c-.162-4.249-2.957-7.1-7.581-7.1s-7.689,2.85-8.224,7.1Z" transform="translate(-127.473 -8.749)"/>
    <path id="Trazado_23" data-name="Trazado 23" d="M380.014,28.585c0-2.311-.216-4.3-.216-5.966h3.979c0,1.344.107,2.742.107,4.139h.109a9.137,9.137,0,0,1,8.386-4.785c6.61,0,9.569,4.193,9.569,10.268V47.776h-4.193V32.668c0-4.192-1.828-6.827-5.752-6.827-5.431,0-7.8,3.925-7.8,9.677V47.776h-4.192Z" transform="translate(-142.107 -8.749)"/>
    <path id="Trazado_24" data-name="Trazado 24" d="M445,43.207c-2.955,3.817-6.505,5.215-11.181,5.215-7.9,0-12.74-5.914-12.74-13.224,0-7.795,5.483-13.225,12.9-13.225,7.1,0,11.933,4.838,11.933,13.171v1.344H425.6a8.409,8.409,0,0,0,8.224,8.064,9.371,9.371,0,0,0,8.01-3.817ZM441.4,32.94c-.162-4.249-2.957-7.1-7.581-7.1s-7.689,2.85-8.224,7.1Z" transform="translate(-155.546 -8.749)"/>
    <path id="Trazado_25" data-name="Trazado 25" d="M478.5,23.027h-7.419V35.606c0,3.225.055,5.806,3.762,5.806a8.154,8.154,0,0,0,3.709-.86l.162,3.817a12.758,12.758,0,0,1-4.892.914c-5.967,0-6.933-3.225-6.933-8.44V23.027h-5.483V19.479h5.483V12.33h4.192v7.149H478.5Z" transform="translate(-168.674 -5.61)"/>
    <path id="Trazado_26" data-name="Trazado 26" d="M495.391,3.8a3.064,3.064,0,1,1-3.064,3.064A3.063,3.063,0,0,1,495.391,3.8ZM493.3,16.7h4.192V41.859H493.3Z" transform="translate(-178.74 -2.833)"/>
    <path id="Trazado_27" data-name="Trazado 27" d="M528.336,28.9A7.728,7.728,0,0,0,522,25.84c-5.645,0-8.493,4.194-8.493,9.355s3.386,9.353,8.493,9.353a7.345,7.345,0,0,0,6.4-3.118l3.117,2.957A12.218,12.218,0,0,1,522,48.418c-7.8,0-13.009-5.483-13.009-13.224,0-7.634,5.269-13.225,13.009-13.225a12.778,12.778,0,0,1,9.676,3.979Z" transform="translate(-184.164 -8.746)"/>
    <path id="Trazado_28" data-name="Trazado 28" d="M547.55,41.164c1.665,2.042,3.493,3.386,6.45,3.386,2.63,0,5.536-1.128,5.536-3.87,0-2.688-2.686-3.387-5.374-3.979-4.785-1.076-8.871-2.1-8.871-7.312,0-4.892,4.731-7.419,9.407-7.419,3.55,0,6.828,1.344,8.547,4.569l-3.493,2.311a5.994,5.994,0,0,0-5.321-3.011c-2.312,0-4.947,1.13-4.947,3.5,0,2.1,3.011,3.01,6.345,3.656,4.462.86,8.224,2.473,8.224,7.526,0,5.7-5.052,7.9-10.049,7.9-4.249,0-7.312-1.129-9.78-4.677Z" transform="translate(-195.635 -8.748)"/>
  </g>
</svg>
